<svg width="24" height="24" viewBox="0 0 24 24" fill="none" xmlns="http://www.w3.org/2000/svg">
<path opacity="0.3" fill-rule="evenodd" clip-rule="evenodd" d="M7 3.25C3.82436 3.25 1.25 5.82436 1.25 9V15C1.25 18.1756 3.82436 20.75 7 20.75H17C20.1756 20.75 22.75 18.1756 22.75 15V9C22.75 5.82436 20.1756 3.25 17 3.25H7Z" fill="#4B0908"/>
<path d="M6.45 8.4C6.11863 8.15147 5.64853 8.21863 5.4 8.55C5.15147 8.88137 5.21863 9.35147 5.55 9.6L6.45 8.4ZM18.45 9.6C18.7814 9.35147 18.8485 8.88137 18.6 8.55C18.3515 8.21863 17.8814 8.15147 17.55 8.4L18.45 9.6ZM5.55 9.6L10.35 13.2L11.25 12L6.45 8.4L5.55 9.6ZM13.65 13.2L18.45 9.6L17.55 8.4L12.75 12L13.65 13.2ZM10.35 13.2C11.3278 13.9333 12.6722 13.9333 13.65 13.2L12.75 12C12.3056 12.3333 11.6944 12.3333 11.25 12L10.35 13.2Z" fill="#4B0908"/>
</svg>
