<svg width="64" height="64" viewBox="0 0 64 64" fill="none" xmlns="http://www.w3.org/2000/svg">
<g filter="url(#filter0_d_220_3111)">
<circle cx="32" cy="31" r="24" fill="white"/>
</g>
<path d="M32 7C18.7448 7 8 17.7448 8 31C8 42.9784 16.7768 52.9072 28.2512 54.7096V37.936H22.1552V31H28.2512V25.7128C28.2512 19.6984 31.832 16.3768 37.316 16.3768C39.9416 16.3768 42.6872 16.8448 42.6872 16.8448V22.7488H39.6632C36.68 22.7488 35.7512 24.5992 35.7512 26.4976V31H42.4064L41.3432 37.936H35.7512V54.7096C47.2232 52.9096 56 42.976 56 31C56 17.7448 45.2552 7 32 7Z" fill="#1877F2"/>
<defs>
<filter id="filter0_d_220_3111" x="0" y="0" width="64" height="64" filterUnits="userSpaceOnUse" color-interpolation-filters="sRGB">
<feFlood flood-opacity="0" result="BackgroundImageFix"/>
<feColorMatrix in="SourceAlpha" type="matrix" values="0 0 0 0 0 0 0 0 0 0 0 0 0 0 0 0 0 0 127 0" result="hardAlpha"/>
<feOffset dy="1"/>
<feGaussianBlur stdDeviation="4"/>
<feColorMatrix type="matrix" values="0 0 0 0 0.0941176 0 0 0 0 0.466667 0 0 0 0 0.94902 0 0 0 0.3 0"/>
<feBlend mode="normal" in2="BackgroundImageFix" result="effect1_dropShadow_220_3111"/>
<feBlend mode="normal" in="SourceGraphic" in2="effect1_dropShadow_220_3111" result="shape"/>
</filter>
</defs>
</svg>
