<svg width="26" height="26" viewBox="0 0 26 26" fill="none" xmlns="http://www.w3.org/2000/svg">
<path d="M13 0C5.824 0 0 5.824 0 13C0 20.176 5.824 26 13 26C20.176 26 26 20.176 26 13C26 5.824 20.176 0 13 0ZM10.4 18.2C9.685 18.2 9.1 17.615 9.1 16.9V9.1C9.1 8.385 9.685 7.8 10.4 7.8C11.115 7.8 11.7 8.385 11.7 9.1V16.9C11.7 17.615 11.115 18.2 10.4 18.2ZM15.6 18.2C14.885 18.2 14.3 17.615 14.3 16.9V9.1C14.3 8.385 14.885 7.8 15.6 7.8C16.315 7.8 16.9 8.385 16.9 9.1V16.9C16.9 17.615 16.315 18.2 15.6 18.2Z" fill="white"/>
</svg>
