<svg width="39" height="38" viewBox="0 0 39 38" fill="none" xmlns="http://www.w3.org/2000/svg">
<g opacity="0.8" clip-path="url(#clip0_222_3561)">
<path d="M38.5 19C38.5 24.0391 36.4982 28.8718 32.935 32.435C29.3718 35.9982 24.5391 38 19.5 38C14.4609 38 9.62816 35.9982 6.06497 32.435C2.50178 28.8718 0.5 24.0391 0.5 19C0.5 13.9609 2.50178 9.12816 6.06497 5.56497C9.62816 2.00178 14.4609 0 19.5 0C24.5391 0 29.3718 2.00178 32.935 5.56497C36.4982 9.12816 38.5 13.9609 38.5 19ZM16.6262 12.0959C16.4487 11.9695 16.2398 11.8943 16.0223 11.8788C15.8049 11.8632 15.5874 11.9078 15.3936 12.0076C15.1999 12.1074 15.0373 12.2587 14.9238 12.4447C14.8103 12.6308 14.7501 12.8445 14.75 13.0625V24.9375C14.7501 25.1555 14.8103 25.3692 14.9238 25.5553C15.0373 25.7413 15.1999 25.8926 15.3936 25.9924C15.5874 26.0922 15.8049 26.1368 16.0223 26.1212C16.2398 26.1057 16.4487 26.0305 16.6262 25.9041L24.9387 19.9666C25.0927 19.8568 25.2182 19.7118 25.3047 19.5436C25.3913 19.3755 25.4365 19.1891 25.4365 19C25.4365 18.8109 25.3913 18.6245 25.3047 18.4564C25.2182 18.2882 25.0927 18.1432 24.9387 18.0334L16.6262 12.0959Z" fill="white"/>
</g>
<defs>
<clipPath id="clip0_222_3561">
<rect width="38" height="38" fill="white" transform="translate(0.5)"/>
</clipPath>
</defs>
</svg>
