<svg width="36" height="36" viewBox="0 0 36 36" fill="none" xmlns="http://www.w3.org/2000/svg">
<circle cx="17.7623" cy="18.3748" r="17.4811" fill="#AA0505"/>
<path d="M17.7623 8.84979C23.0229 8.84979 27.2873 13.1141 27.2873 18.3748C27.2873 23.6354 23.0229 27.8997 17.7623 27.8997C12.5016 27.8997 8.2373 23.6354 8.2373 18.3748C8.2373 13.1141 12.5016 8.84979 17.7623 8.84979ZM17.7623 13.6123C17.5897 13.6123 17.4229 13.6748 17.2928 13.7883C17.1627 13.9017 17.0781 14.0585 17.0546 14.2295L17.0479 14.3267V17.6604H13.7142C13.5332 17.6604 13.3589 17.7292 13.2267 17.8528C13.0944 17.9763 13.014 18.1455 13.0017 18.3261C12.9893 18.5067 13.046 18.6852 13.1602 18.8256C13.2744 18.966 13.4377 19.0578 13.617 19.0825L13.7142 19.0891H17.0479V22.4229C17.048 22.6039 17.1167 22.7781 17.2403 22.9104C17.3638 23.0426 17.533 23.123 17.7136 23.1354C17.8942 23.1477 18.0727 23.091 18.2131 22.9768C18.3535 22.8626 18.4453 22.6993 18.47 22.52L18.4767 22.4229V19.0891H21.8104C21.9914 19.0891 22.1656 19.0203 22.2979 18.8968C22.4301 18.7732 22.5105 18.604 22.5229 18.4235C22.5352 18.2429 22.4786 18.0644 22.3643 17.924C22.2501 17.7835 22.0869 17.6917 21.9075 17.6671L21.8104 17.6604H18.4767V14.3267C18.4767 14.1372 18.4014 13.9555 18.2674 13.8215C18.1334 13.6875 17.9517 13.6123 17.7623 13.6123Z" fill="white"/>
</svg>
