<svg width="48" height="48" viewBox="0 0 48 48" fill="none" xmlns="http://www.w3.org/2000/svg">
<path d="M24 48C37.2548 48 48 37.2548 48 24C48 10.7452 37.2548 0 24 0C10.7452 0 0 10.7452 0 24C0 37.2548 10.7452 48 24 48Z" fill="#2DAAE1"/>
<path d="M39.3884 14.4532C38.2564 14.9555 37.0405 15.2951 35.7621 15.4478C37.0668 14.6665 38.0663 13.4284 38.5383 11.9549C37.2989 12.691 35.9425 13.2093 34.528 13.4871C33.3769 12.2601 31.7355 11.4941 29.9195 11.4941C26.4337 11.4941 23.6068 14.3199 23.6068 17.8077C23.6068 18.3018 23.6624 18.784 23.7694 19.2469C18.5221 18.9831 13.87 16.4696 10.7561 12.6503C10.2124 13.5831 9.90118 14.6676 9.90118 15.8248C9.90118 18.0149 11.0159 19.9473 12.7098 21.0792C11.7071 21.0482 10.7263 20.7775 9.8496 20.2899V20.3697C9.8496 23.429 12.0256 25.9799 14.914 26.56C14.3834 26.7054 13.8266 26.7814 13.2505 26.7814C12.8432 26.7814 12.448 26.7428 12.062 26.6702C12.8654 29.1777 15.1972 31.0029 17.9592 31.0545C15.7983 32.7484 13.0756 33.7581 10.1184 33.7581C9.60911 33.7581 9.10572 33.7277 8.61154 33.6681C11.4061 35.46 14.7241 36.5061 18.2897 36.5061C29.9023 36.5061 36.2533 26.8855 36.2533 18.5425C36.2533 18.2686 36.2472 17.9967 36.234 17.7258C37.4714 16.8308 38.5395 15.7227 39.3884 14.4532Z" fill="white"/>
</svg>
