<svg width="16" height="16" viewBox="0 0 16 16" fill="none" xmlns="http://www.w3.org/2000/svg">
<circle cx="8" cy="8" r="8" fill="black" fill-opacity="0.42"/>
<path d="M10.5 8.50024C10.5 8.2241 10.2761 8.00024 9.99999 8.00024C9.72385 8.00024 9.49999 8.2241 9.49999 8.50024H10.5ZM8.2 11.8115L8.52686 11.4332L8.51993 11.4272L8.51279 11.4214L8.2 11.8115ZM7.81278 10.8602C7.59734 10.6874 7.28266 10.722 7.10991 10.9375C6.93717 11.1529 6.97178 11.4676 7.18722 11.6403L7.81278 10.8602ZM8.34628 11.9379L8.67314 11.5595L8.34628 11.9379ZM5.65577 6.11011L5.65577 5.61011L5.65577 6.11011ZM7.29004 6.00197L8.67314 4.80717L8.01943 4.05043L6.63632 5.24522L7.29004 6.00197ZM5 6.61012L5.65577 6.61011L5.65577 5.61011L4.99999 5.61012L5 6.61012ZM4.5 9.2566V7.11011H3.5V9.2566H4.5ZM6.40001 9.7566H5V10.7566H6.40001V9.7566ZM9.49999 9.25025V11.1811H10.5V9.25025H9.49999ZM9.49999 5.18555V6.50024H10.5V5.18555H9.49999ZM9.49999 8.50024V9.25025H10.5V8.50024H9.49999ZM8.67314 11.5595L8.52686 11.4332L7.87315 12.1899L8.01942 12.3163L8.67314 11.5595ZM8.51279 11.4214L7.81278 10.8602L7.18722 11.6403L7.88722 12.2016L8.51279 11.4214ZM3.5 9.2566C3.5 10.085 4.17157 10.7566 5 10.7566V9.7566C4.72386 9.7566 4.5 9.53275 4.5 9.2566H3.5ZM4.99999 5.61012C4.17157 5.61012 3.5 6.28169 3.5 7.11011H4.5C4.5 6.83397 4.72385 6.61012 5 6.61012L4.99999 5.61012ZM8.67314 4.80717C8.99709 4.52733 9.49999 4.75746 9.49999 5.18555H10.5C10.5 3.9013 8.99127 3.2109 8.01943 4.05043L8.67314 4.80717ZM9.49999 11.1811C9.49999 11.6092 8.99709 11.8394 8.67314 11.5595L8.01942 12.3163C8.99127 13.1558 10.5 12.4654 10.5 11.1811H9.49999ZM6.63632 5.24522C6.36386 5.4806 6.01582 5.61011 5.65577 5.61011L5.65577 6.61011C6.25586 6.61011 6.83592 6.39425 7.29004 6.00197L6.63632 5.24522Z" fill="white"/>
<path d="M12 4.50024L4.49998 12.0002" stroke="white" stroke-linecap="round" stroke-linejoin="round"/>
</svg>
