<svg width="16" height="16" viewBox="0 0 16 16" fill="none" xmlns="http://www.w3.org/2000/svg">
<circle cx="8" cy="8" r="8" fill="black" fill-opacity="0.42"/>
<path d="M9 4.96702C9 4.19647 8.09477 3.78223 7.51166 4.28595L5.96319 5.6236C5.5999 5.93742 5.13585 6.11011 4.65578 6.11011L4 6.11012C3.44772 6.11012 3.00001 6.55783 3.00001 7.11011V9.2566C3.00001 9.80889 3.44772 10.2566 4.00001 10.2566H4.65579C5.13586 10.2566 5.59992 10.4293 5.96322 10.7431L7.51166 12.0807C8.09477 12.5845 9 12.1702 9 11.3997V8.18334V4.96702Z" stroke="white"/>
<path d="M10.5 9.68311C10.814 9.26528 11 8.74591 11 8.18311C11 7.6203 10.814 7.10094 10.5 6.68311" stroke="white" stroke-width="0.8" stroke-linecap="round"/>
<path d="M11.5 11.1831C12.1279 10.3474 12.5 9.30871 12.5 8.18311C12.5 7.0575 12.1279 6.01877 11.5 5.18311" stroke="white" stroke-width="0.8" stroke-linecap="round"/>
</svg>
