<svg width="79" height="79" viewBox="0 0 79 79" fill="none" xmlns="http://www.w3.org/2000/svg">
<path d="M39.5 73.3571C43.9462 73.3571 48.3488 72.4814 52.4566 70.7799C56.5643 69.0784 60.2967 66.5845 63.4406 63.4406C66.5845 60.2967 69.0784 56.5643 70.7799 52.4566C72.4814 48.3488 73.3571 43.9462 73.3571 39.5C73.3571 35.0538 72.4814 30.6512 70.7799 26.5434C69.0784 22.4357 66.5845 18.7033 63.4406 15.5594C60.2967 12.4155 56.5643 9.92156 52.4566 8.22008C48.3488 6.5186 43.9462 5.64286 39.5 5.64286C30.5205 5.64286 21.9088 9.20994 15.5594 15.5594C9.20994 21.9088 5.64286 30.5205 5.64286 39.5C5.64286 48.4795 9.20994 57.0912 15.5594 63.4406C21.9088 69.7901 30.5205 73.3571 39.5 73.3571ZM39.5 79C29.0239 79 18.977 74.8384 11.5693 67.4307C4.16159 60.023 0 49.9761 0 39.5C0 29.0239 4.16159 18.977 11.5693 11.5693C18.977 4.16159 29.0239 0 39.5 0C49.9761 0 60.023 4.16159 67.4307 11.5693C74.8384 18.977 79 29.0239 79 39.5C79 49.9761 74.8384 60.023 67.4307 67.4307C60.023 74.8384 49.9761 79 39.5 79Z" fill="#32B31D"/>
</svg>
