<svg width="97" height="96" viewBox="0 0 97 96" fill="none" xmlns="http://www.w3.org/2000/svg">
<g id="ph:music-notes-fill" opacity="0.3">
<path id="Vector" d="M81.1501 12.0001V64.5001C81.1573 67.5203 80.1544 70.4562 78.3008 72.8408C76.4472 75.2254 73.8495 76.9216 70.9208 77.6597C67.9921 78.3977 64.9008 78.1352 62.1385 76.9139C59.3761 75.6926 57.1016 73.5827 55.6766 70.9198C54.2516 68.2568 53.758 65.1938 54.2744 62.218C54.7908 59.2423 56.2875 56.5247 58.5263 54.4975C60.7652 52.4703 63.6176 51.2501 66.6299 51.0308C69.6422 50.8116 72.6413 51.606 75.1501 53.2876V30.8251L33.1501 41.3251V76.5001C33.1573 79.5203 32.1544 82.4562 30.3008 84.8408C28.4472 87.2254 25.8495 88.9216 22.9208 89.6597C19.9921 90.3977 16.9008 90.1352 14.1384 88.9139C11.3761 87.6926 9.10158 85.5827 7.67659 82.9198C6.2516 80.2568 5.75804 77.1938 6.27442 74.218C6.7908 71.2423 8.28747 68.5246 10.5263 66.4975C12.7652 64.4703 15.6176 63.2501 18.6299 63.0308C21.6422 62.8116 24.6413 63.606 27.1501 65.2876V24.0001C27.1476 23.3265 27.3719 22.6717 27.7869 22.1411C28.2018 21.6106 28.7833 21.235 29.4376 21.0751L77.4376 9.07508C77.8775 8.9706 78.3354 8.96692 78.777 9.06433C79.2185 9.16173 79.6324 9.3577 79.9875 9.63758C80.3525 9.91309 80.6478 10.2703 80.8497 10.6806C81.0516 11.0909 81.1544 11.5428 81.1501 12.0001Z" fill="black"/>
</g>
</svg>
