<svg width="38" height="38" viewBox="0 0 38 38" fill="none" xmlns="http://www.w3.org/2000/svg">
<g opacity="0.8" clip-path="url(#clip0_496_7152)">
<path d="M19 0C8.512 0 0 8.512 0 19C0 29.488 8.512 38 19 38C29.488 38 38 29.488 38 19C38 8.512 29.488 0 19 0ZM15.2 26.6C14.155 26.6 13.3 25.745 13.3 24.7V13.3C13.3 12.255 14.155 11.4 15.2 11.4C16.245 11.4 17.1 12.255 17.1 13.3V24.7C17.1 25.745 16.245 26.6 15.2 26.6ZM22.8 26.6C21.755 26.6 20.9 25.745 20.9 24.7V13.3C20.9 12.255 21.755 11.4 22.8 11.4C23.845 11.4 24.7 12.255 24.7 13.3V24.7C24.7 25.745 23.845 26.6 22.8 26.6Z" fill="white"/>
</g>
<defs>
<clipPath id="clip0_496_7152">
<rect width="38" height="38" fill="white"/>
</clipPath>
</defs>
</svg>
