<svg width="25" height="24" viewBox="0 0 25 24" fill="none" xmlns="http://www.w3.org/2000/svg">
<path d="M12.5498 2C18.0728 2 22.5498 6.477 22.5498 12C22.5498 17.523 18.0728 22 12.5498 22C7.0268 22 2.5498 17.523 2.5498 12C2.5498 6.477 7.0268 2 12.5498 2ZM12.5498 7C12.3686 7.00001 12.1935 7.06564 12.0569 7.18477C11.9203 7.30389 11.8315 7.46845 11.8068 7.648L11.7998 7.75V11.25H8.2998C8.10978 11.2501 7.92686 11.3222 7.78801 11.452C7.64916 11.5817 7.56473 11.7593 7.55178 11.9489C7.53883 12.1385 7.59832 12.3259 7.71824 12.4733C7.83815 12.6207 8.00955 12.7171 8.1978 12.743L8.2998 12.75H11.7998V16.25C11.7999 16.44 11.872 16.6229 12.0018 16.7618C12.1315 16.9006 12.3091 16.9851 12.4987 16.998C12.6883 17.011 12.8757 16.9515 13.0231 16.8316C13.1705 16.7117 13.2669 16.5402 13.2928 16.352L13.2998 16.25V12.75H16.7998C16.9898 12.7499 17.1727 12.6778 17.3116 12.548C17.4504 12.4183 17.5349 12.2407 17.5478 12.0511C17.5608 11.8615 17.5013 11.6741 17.3814 11.5267C17.2615 11.3793 17.0901 11.2829 16.9018 11.257L16.7998 11.25H13.2998V7.75C13.2998 7.55109 13.2208 7.36032 13.0801 7.21967C12.9395 7.07902 12.7487 7 12.5498 7Z" fill="#AA0505"/>
</svg>
