<svg width="28" height="21" viewBox="0 0 28 21" fill="none" xmlns="http://www.w3.org/2000/svg">
<circle r="4.34282" transform="matrix(-1 0 0 1 14.0288 5.34282)" stroke="#A3A3A3" stroke-width="1.8"/>
<path d="M17.847 19.4597L17.7197 20.3507L17.847 19.4597ZM10.2103 19.4597L10.083 18.5688L10.2103 19.4597ZM20.7286 16.1291V17.6939H22.5286V16.1291H20.7286ZM7.32871 17.6939V16.1291H5.52871V17.6939H7.32871ZM19.473 18.7829L17.9743 18.5688L17.7197 20.3507L19.2185 20.5648L19.473 18.7829ZM10.083 18.5688L8.58427 18.7829L8.83883 20.5648L10.3375 20.3507L10.083 18.5688ZM17.9743 18.5688C15.3571 18.1949 12.7001 18.1949 10.083 18.5688L10.3375 20.3507C12.7858 20.0009 15.2714 20.0009 17.7197 20.3507L17.9743 18.5688ZM8.1983 14.8951C11.9686 13.5486 16.0887 13.5486 19.859 14.8951L20.4644 13.2C16.3026 11.7136 11.7547 11.7136 7.59289 13.2L8.1983 14.8951ZM5.52871 17.6939C5.52871 19.4587 7.09177 20.8144 8.83883 20.5648L8.58427 18.7829C7.9216 18.8776 7.32871 18.3633 7.32871 17.6939H5.52871ZM20.7286 17.6939C20.7286 18.3633 20.1357 18.8776 19.473 18.7829L19.2185 20.5648C20.9655 20.8144 22.5286 19.4587 22.5286 17.6939H20.7286ZM22.5286 16.1291C22.5286 14.8146 21.7023 13.6421 20.4644 13.2L19.859 14.8951C20.3805 15.0814 20.7286 15.5753 20.7286 16.1291H22.5286ZM7.32871 16.1291C7.32871 15.5753 7.67681 15.0814 8.1983 14.8951L7.59289 13.2C6.35502 13.6421 5.52871 14.8146 5.52871 16.1291H7.32871Z" fill="#A3A3A3"/>
<path d="M20.5425 10.7056C20.0455 10.7056 19.6425 10.3027 19.6425 9.80563C19.6425 9.30857 20.0455 8.90563 20.5425 8.90563V10.7056ZM20.5425 3.8812C20.0455 3.8812 19.6425 3.47826 19.6425 2.9812C19.6425 2.48414 20.0455 2.0812 20.5425 2.0812V3.8812ZM20.5425 8.90563C21.93 8.90563 23.0547 7.78087 23.0547 6.39341H24.8547C24.8547 8.77498 22.9241 10.7056 20.5425 10.7056V8.90563ZM23.0547 6.39341C23.0547 5.00596 21.93 3.8812 20.5425 3.8812V2.0812C22.9241 2.0812 24.8547 4.01185 24.8547 6.39341H23.0547Z" fill="#A3A3A3"/>
<path d="M24.4069 16.6995C23.9149 16.6292 23.459 16.9711 23.3887 17.4632C23.3184 17.9552 23.6603 18.4111 24.1524 18.4814L24.4069 16.6995ZM25.3614 13.2327L25.0587 14.0803L25.0587 14.0803L25.3614 13.2327ZM24.614 17.6382L24.4867 18.5292H24.4867L24.614 17.6382ZM23.4273 11.7738C22.9392 11.6796 22.4673 11.9989 22.3731 12.487C22.2789 12.975 22.5983 13.447 23.0863 13.5412L23.4273 11.7738ZM25.6139 14.8682V15.9904H27.4139V14.8682H25.6139ZM24.7413 16.7473L24.4069 16.6995L24.1524 18.4814L24.4867 18.5292L24.7413 16.7473ZM25.6139 15.9904C25.6139 16.4557 25.2018 16.8131 24.7413 16.7473L24.4867 18.5292C26.0317 18.7499 27.4139 17.5511 27.4139 15.9904H25.6139ZM27.4139 14.8682C27.4139 13.7539 26.7134 12.7599 25.6641 12.3852L25.0587 14.0803C25.3916 14.1992 25.6139 14.5146 25.6139 14.8682H27.4139ZM23.0863 13.5412C23.7531 13.6698 24.4125 13.8495 25.0587 14.0803L25.6641 12.3852C24.9313 12.1235 24.1835 11.9197 23.4273 11.7738L23.0863 13.5412Z" fill="#A3A3A3"/>
<path d="M6.97142 10.7056C7.46847 10.7056 7.87142 10.3027 7.87142 9.80563C7.87142 9.30857 7.46847 8.90563 6.97142 8.90563V10.7056ZM6.97142 3.8812C7.46847 3.8812 7.87142 3.47826 7.87142 2.9812C7.87142 2.48414 7.46847 2.0812 6.97142 2.0812V3.8812ZM6.97142 8.90563C5.58396 8.90563 4.4592 7.78087 4.4592 6.39341H2.6592C2.6592 8.77498 4.58985 10.7056 6.97142 10.7056V8.90563ZM4.4592 6.39341C4.4592 5.00596 5.58396 3.8812 6.97142 3.8812V2.0812C4.58985 2.0812 2.6592 4.01185 2.6592 6.39341H4.4592Z" fill="#A3A3A3"/>
<path d="M3.10701 16.6995C3.59907 16.6292 4.05495 16.9711 4.12524 17.4632C4.19554 17.9552 3.85363 18.4111 3.36157 18.4814L3.10701 16.6995ZM2.15258 13.2327L2.45528 14.0803L2.45528 14.0803L2.15258 13.2327ZM2.89996 17.6382L3.02724 18.5292H3.02724L2.89996 17.6382ZM4.08664 11.7738C4.5747 11.6796 5.04668 11.9989 5.14084 12.487C5.23501 12.975 4.9157 13.447 4.42764 13.5412L4.08664 11.7738ZM1.90003 14.8682V15.9904H0.100028V14.8682H1.90003ZM2.77268 16.7473L3.10701 16.6995L3.36157 18.4814L3.02724 18.5292L2.77268 16.7473ZM1.90003 15.9904C1.90003 16.4557 2.3121 16.8131 2.77268 16.7473L3.02724 18.5292C1.48228 18.7499 0.100028 17.5511 0.100028 15.9904H1.90003ZM0.100028 14.8682C0.100028 13.7539 0.800509 12.7599 1.84988 12.3852L2.45528 14.0803C2.1223 14.1992 1.90003 14.5146 1.90003 14.8682H0.100028ZM4.42764 13.5412C3.76086 13.6698 3.10145 13.8495 2.45528 14.0803L1.84988 12.3852C2.58262 12.1235 3.33043 11.9197 4.08664 11.7738L4.42764 13.5412Z" fill="#A3A3A3"/>
</svg>
