<svg width="19" height="19" viewBox="0 0 19 19" fill="none" xmlns="http://www.w3.org/2000/svg">
<path d="M2.85 3.71237C2.85 2.97973 3.14426 2.2771 3.66805 1.75904C4.19184 1.24099 4.90225 0.949951 5.643 0.949951H13.357C14.0977 0.949951 14.8082 1.24099 15.3319 1.75904C15.8557 2.2771 16.15 2.97973 16.15 3.71237V17.3929C16.1499 17.514 16.116 17.6326 16.052 17.7358C15.9881 17.8391 15.8966 17.9228 15.7876 17.9779C15.6786 18.033 15.5564 18.0573 15.4344 18.048C15.3123 18.0388 15.1952 17.9965 15.096 17.9257L9.5 13.93L3.90402 17.9257C3.80476 17.9965 3.68767 18.0388 3.56564 18.048C3.4436 18.0573 3.32136 18.033 3.21238 17.9779C3.1034 17.9228 3.0119 17.8391 2.94796 17.7358C2.88402 17.6326 2.85012 17.514 2.85 17.3929V3.71237ZM5.643 2.26539C5.25499 2.26539 4.88287 2.41784 4.6085 2.6892C4.33414 2.96056 4.18 3.32861 4.18 3.71237V16.1064L9.11097 12.5843C9.22424 12.5035 9.36035 12.46 9.5 12.46C9.63965 12.46 9.77576 12.5035 9.88902 12.5843L14.82 16.1064V3.71237C14.82 3.32861 14.6659 2.96056 14.3915 2.6892C14.1171 2.41784 13.745 2.26539 13.357 2.26539H5.643Z" fill="#878787"/>
</svg>
