<svg width="26" height="19" viewBox="0 0 26 19" fill="none" xmlns="http://www.w3.org/2000/svg">
<path fill-rule="evenodd" clip-rule="evenodd" d="M22.2796 17.2683C22.3437 17.2768 22.4077 17.2855 22.4718 17.2945L22.7938 17.3397C24.1956 17.5364 25.4498 16.4679 25.4498 15.0769V14.0154C25.4498 13.0206 24.8131 12.1332 23.8594 11.7986C22.7575 11.412 21.6199 11.1603 20.4715 11.0435C21.6697 11.9098 22.4129 13.3127 22.4129 14.8432V16.1612C22.4129 16.5439 22.3666 16.9146 22.2796 17.2683ZM17.4227 9.63132C17.9002 9.82846 18.4248 9.93741 18.9752 9.93741C21.1899 9.93741 22.9852 8.1739 22.9852 5.99849C22.9852 3.82308 21.1899 2.05957 18.9752 2.05957C18.9096 2.05957 18.8444 2.06112 18.7795 2.06418C19.1823 2.92189 19.4073 3.87958 19.4073 4.88984C19.4073 6.74569 18.6478 8.42414 17.4227 9.63132Z" fill="#AA0505"/>
<path fill-rule="evenodd" clip-rule="evenodd" d="M3.1702 17.2683C3.1061 17.2768 3.04203 17.2855 2.97798 17.2945L2.65601 17.3397C1.25418 17.5364 -1.71661e-05 16.4679 -1.71661e-05 15.0769V14.0154C-1.71661e-05 13.0206 0.636636 12.1332 1.59039 11.7986C2.69231 11.412 3.8299 11.1603 4.97828 11.0435C3.78003 11.9098 3.03683 13.3127 3.03683 14.8432V16.1612C3.03683 16.5439 3.08315 16.9146 3.1702 17.2683ZM8.0271 9.63132C7.54957 9.82846 7.02501 9.93741 6.47454 9.93741C4.25987 9.93741 2.46453 8.1739 2.46453 5.99849C2.46453 3.82308 4.25987 2.05957 6.47454 2.05957C6.54015 2.05957 6.60539 2.06112 6.67023 2.06418C6.2675 2.92189 6.04243 3.87958 6.04243 4.88984C6.04243 6.74569 6.80195 8.42414 8.0271 9.63132Z" fill="#AA0505"/>
<path fill-rule="evenodd" clip-rule="evenodd" d="M17.6416 4.89035C17.6416 2.18949 15.4522 0 12.7513 0C10.0504 0 7.86093 2.18949 7.86093 4.89035C7.86093 7.59122 10.0504 9.78071 12.7513 9.78071C15.4522 9.78071 17.6416 7.59122 17.6416 4.89035Z" fill="#AA0505"/>
<path fill-rule="evenodd" clip-rule="evenodd" d="M6.7949 12.0915C10.6467 10.7158 14.8559 10.7158 18.7077 12.0915C19.8708 12.5069 20.6472 13.6086 20.6472 14.8437V16.1617C20.6472 17.8886 19.1177 19.2152 17.4081 18.9709L17.0155 18.9149C14.187 18.5108 11.3155 18.5108 8.48712 18.9149L8.09446 18.9709C6.38488 19.2152 4.85535 17.8886 4.85535 16.1617V14.8437C4.85535 13.6086 5.63177 12.5069 6.7949 12.0915Z" fill="#AA0505"/>
</svg>
