<svg width="20" height="19" viewBox="0 0 20 19" fill="none" xmlns="http://www.w3.org/2000/svg">
<path d="M10.1221 18.125H18.0283C18.2189 18.125 18.4018 18.0493 18.5366 17.9145C18.6713 17.7797 18.7471 17.5969 18.7471 17.4062V9.49998C18.7471 8.36733 18.524 7.24578 18.0905 6.19934C17.6571 5.15291 17.0218 4.2021 16.2209 3.4012C15.42 2.6003 14.4692 1.96498 13.4227 1.53154C12.3763 1.09809 11.2547 0.875 10.1221 0.875H10.1221C8.98942 0.875 7.86786 1.09809 6.82143 1.53154C5.77499 1.96499 4.82418 2.6003 4.02327 3.4012C3.22237 4.20211 2.58706 5.15292 2.15361 6.19936C1.72016 7.24579 1.49707 8.36735 1.49707 9.5V9.50002C1.49707 11.7875 2.40577 13.9813 4.02327 15.5988C5.64077 17.2163 7.83457 18.125 10.1221 18.125Z" stroke="#878787" stroke-width="1.5" stroke-linecap="round" stroke-linejoin="round"/>
<path d="M10.1221 11.0007C9.50075 11.0007 8.99707 10.4971 8.99707 9.87573C8.99707 9.25441 9.50075 8.75073 10.1221 8.75073C10.7434 8.75073 11.2471 9.25441 11.2471 9.87573C11.2471 10.4971 10.7434 11.0007 10.1221 11.0007Z" fill="#878787"/>
<path d="M14.6221 11.0007C14.0007 11.0007 13.4971 10.4971 13.4971 9.87573C13.4971 9.25441 14.0007 8.75073 14.6221 8.75073C15.2434 8.75073 15.7471 9.25441 15.7471 9.87573C15.7471 10.4971 15.2434 11.0007 14.6221 11.0007Z" fill="#878787"/>
<path d="M5.62207 11.0007C5.00075 11.0007 4.49707 10.4971 4.49707 9.87573C4.49707 9.25441 5.00075 8.75073 5.62207 8.75073C6.24339 8.75073 6.74707 9.25441 6.74707 9.87573C6.74707 10.4971 6.24339 11.0007 5.62207 11.0007Z" fill="#878787"/>
</svg>
