<svg width="18" height="18" viewBox="0 0 18 18" fill="none" xmlns="http://www.w3.org/2000/svg">
<path d="M3.43119 3.43119C3.64216 3.22029 3.92826 3.10181 4.22657 3.10181C4.52488 3.10181 4.81097 3.22029 5.02194 3.43119L8.99994 7.40919L12.9779 3.43119C13.1901 3.22626 13.4743 3.11287 13.7693 3.11543C14.0642 3.118 14.3464 3.23631 14.555 3.4449C14.7636 3.65348 14.8819 3.93564 14.8844 4.23062C14.887 4.52559 14.7736 4.80976 14.5687 5.02194L10.5907 8.99994L14.5687 12.9779C14.7736 13.1901 14.887 13.4743 14.8844 13.7693C14.8819 14.0642 14.7636 14.3464 14.555 14.555C14.3464 14.7636 14.0642 14.8819 13.7693 14.8844C13.4743 14.887 13.1901 14.7736 12.9779 14.5687L8.99994 10.5907L5.02194 14.5687C4.80976 14.7736 4.52559 14.887 4.23062 14.8844C3.93564 14.8819 3.65348 14.7636 3.4449 14.555C3.23631 14.3464 3.118 14.0642 3.11543 13.7693C3.11287 13.4743 3.22626 13.1901 3.43119 12.9779L7.40919 8.99994L3.43119 5.02194C3.22029 4.81097 3.10181 4.52488 3.10181 4.22657C3.10181 3.92826 3.22029 3.64216 3.43119 3.43119Z" fill="#777777"/>
</svg>
