<svg xmlns="http://www.w3.org/2000/svg" xmlns:xlink="http://www.w3.org/1999/xlink" width="500" zoomAndPan="magnify" viewBox="0 0 375 374.999991" height="500" preserveAspectRatio="xMidYMid meet" version="1.0"><defs><clipPath id="ce11b965e9"><path d="M 289.046875 190.691406 L 368.207031 190.691406 L 368.207031 327.816406 L 289.046875 327.816406 Z M 289.046875 190.691406 " clip-rule="nonzero"/></clipPath><clipPath id="76c8d1b097"><path d="M 6.707031 3.203125 L 367.625 3.203125 L 367.625 375 L 6.707031 375 Z M 6.707031 3.203125 " clip-rule="nonzero"/></clipPath></defs><path fill="#aa0505" d="M 230.214844 341.214844 C 231.40625 340.164062 232.582031 339.0625 233.742188 337.917969 C 222.382812 344.878906 210.730469 351.292969 198.957031 357.027344 C 231.882812 355.691406 262.503906 345.300781 288.421875 328.285156 L 280.167969 320.023438 C 264.996094 329.671875 248.175781 336.910156 230.214844 341.214844 " fill-opacity="1" fill-rule="nonzero"/><g clip-path="url(#ce11b965e9)"><path fill="#aa0505" d="M 319.667969 285.027344 C 318.207031 284.242188 316.722656 283.472656 315.210938 282.71875 L 309.496094 292.625 C 310.292969 293.019531 311.113281 293.402344 311.902344 293.804688 C 309.550781 296.292969 307.132812 298.714844 304.632812 301.054688 L 289.222656 327.765625 C 334.214844 297.882812 364.808594 247.972656 368.210938 190.839844 L 352.882812 217.410156 C 347.078125 242.617188 335.539062 265.652344 319.667969 285.027344 " fill-opacity="1" fill-rule="nonzero"/></g><g clip-path="url(#76c8d1b097)"><path fill="#aa0505" d="M 153.167969 19.203125 C 138.042969 32.527344 125.25 53.535156 116.054688 79.847656 C 100.441406 75.90625 86.046875 70.742188 73.492188 64.492188 C 94.933594 42.5625 122.386719 26.578125 153.167969 19.203125 Z M 309.886719 64.492188 C 297.332031 70.746094 282.941406 75.90625 267.324219 79.847656 C 258.128906 53.535156 245.335938 32.53125 230.214844 19.203125 C 260.992188 26.578125 288.445312 42.566406 309.886719 64.492188 Z M 271.492188 174.496094 L 197.394531 174.496094 L 197.394531 100.195312 C 218.832031 99.839844 239.78125 97.5 259.28125 93.382812 C 266.558594 117.273438 270.988281 145.046875 271.492188 174.496094 Z M 185.984375 257.097656 C 164.183594 257.457031 142.9375 259.859375 123.21875 264.082031 C 116.460938 240.871094 112.371094 214.164062 111.882812 185.917969 L 185.984375 185.917969 Z M 63.710938 285.035156 C 41.429688 257.839844 27.652344 223.441406 26.371094 185.917969 L 100.472656 185.917969 C 100.933594 215.40625 104.933594 242.863281 111.710938 266.78125 C 93.921875 271.378906 77.667969 277.535156 63.710938 285.035156 Z M 100.472656 174.496094 L 26.371094 174.496094 C 27.6875 135.96875 42.199219 100.75 65.542969 73.226562 C 79.292969 80.398438 95.207031 86.296875 112.566406 90.726562 C 105.269531 115.320312 100.953125 143.804688 100.472656 174.496094 Z M 185.984375 100.195312 L 185.984375 174.496094 L 111.882812 174.496094 C 112.394531 145.046875 116.820312 117.273438 124.101562 93.382812 C 143.59375 97.5 164.542969 99.839844 185.984375 100.195312 Z M 185.984375 15.117188 L 185.984375 88.777344 C 165.773438 88.433594 146.050781 86.273438 127.703125 82.488281 C 141.320312 44.667969 162.421875 18.761719 185.984375 15.117188 Z M 197.394531 15.117188 C 220.953125 18.757812 242.058594 44.667969 255.679688 82.488281 C 237.324219 86.273438 217.605469 88.433594 197.394531 88.777344 Z M 7.304688 285.121094 C 6.375 294.984375 6.296875 305.988281 8.785156 317.554688 C 10.210938 323.277344 11.910156 329.234375 14.882812 334.894531 C 16.144531 337.765625 18.0625 340.636719 19.976562 343.539062 C 20.949219 345.128906 21.839844 345.984375 22.78125 347.25 L 24.1875 349.003906 L 24.539062 349.445312 L 24.710938 349.664062 L 24.804688 349.777344 C 24.957031 349.945312 24.582031 349.558594 25.167969 350.179688 L 26.058594 351.078125 C 35.324219 361.007812 48.203125 368.085938 61.777344 371.59375 C 75.402344 375.210938 89.589844 375.78125 103.347656 374.667969 C 130.988281 372.421875 157.035156 363.734375 180.199219 353.667969 C 203.394531 343.488281 223.710938 331.433594 240.457031 320.195312 C 248.863281 314.613281 256.308594 309.121094 262.851562 304.171875 C 266.445312 301.417969 269.714844 298.851562 272.734375 296.433594 L 286.289062 310.003906 L 363.128906 176.808594 L 230.03125 253.703125 L 242.539062 266.214844 C 235.863281 272.871094 227.378906 280.882812 217.34375 289.371094 C 203.289062 301.261719 186.03125 314.28125 166.160156 325.777344 C 146.34375 337.183594 123.804688 347.492188 100.367188 352.023438 C 88.6875 354.304688 76.816406 355.09375 65.648438 353.421875 C 54.488281 351.816406 44.167969 347.539062 36.070312 340.664062 L 35.289062 340.042969 C 35.808594 340.605469 35.375 340.140625 35.46875 340.238281 L 35.367188 340.140625 L 34.769531 339.542969 L 33.179688 337.949219 C 32.222656 336.917969 30.859375 335.777344 30.246094 334.855469 C 28.734375 332.921875 27.097656 331.121094 25.753906 328.785156 C 22.792969 324.449219 20.804688 319.570312 18.992188 314.753906 C 15.699219 304.945312 14.578125 294.820312 14.429688 285.453125 C 14.324219 276.046875 15.378906 267.367188 16.515625 259.703125 C 17.40625 254.496094 18.394531 249.792969 19.394531 245.589844 C 19.859375 243.621094 20.328125 241.730469 20.792969 240.003906 C 21.503906 237.320312 22.183594 234.929688 22.804688 232.855469 C 37.089844 278.640625 69.511719 316.457031 111.597656 337.945312 C 116.632812 336.425781 121.714844 334.578125 126.804688 332.515625 C 105.761719 323.5 86.976562 310.226562 71.476562 293.808594 C 84.25 287.222656 99.007812 281.800781 115.082031 277.679688 C 121.574219 297.078125 129.980469 313.742188 139.828125 326.722656 C 143.40625 324.996094 146.964844 323.167969 150.507812 321.257812 C 141.171875 309.304688 133.054688 293.484375 126.691406 275 C 145.304688 271.09375 165.359375 268.867188 185.984375 268.515625 L 185.984375 298.976562 C 189.894531 296.191406 193.703125 293.367188 197.394531 290.53125 L 197.394531 268.515625 C 205.769531 268.660156 214.054688 269.109375 222.1875 269.855469 C 223.585938 268.585938 224.949219 267.324219 226.269531 266.085938 L 218.246094 258.058594 C 211.371094 257.527344 204.410156 257.214844 197.394531 257.097656 L 197.394531 185.917969 L 271.492188 185.917969 C 271.308594 196.808594 270.582031 207.460938 269.375 217.78125 L 281.664062 210.683594 C 282.351562 202.617188 282.773438 194.351562 282.90625 185.917969 L 324.53125 185.917969 L 344.296875 174.496094 L 282.90625 174.496094 C 282.425781 143.804688 278.109375 115.316406 270.8125 90.726562 C 288.167969 86.296875 304.082031 80.398438 317.832031 73.226562 C 339.730469 99.050781 353.855469 131.644531 356.601562 167.390625 L 367.507812 161.089844 C 357.949219 72.449219 282.757812 3.203125 191.6875 3.203125 C 94.160156 3.203125 14.816406 82.609375 14.816406 180.207031 C 14.816406 197.910156 17.460938 215 22.3125 231.136719 C 21.320312 233.4375 20.1875 236.160156 18.929688 239.394531 C 18.828125 239.644531 18.726562 239.933594 18.628906 240.191406 C 16.636719 245.320312 14.496094 251.527344 12.40625 258.792969 C 10.375 266.457031 8.296875 275.238281 7.304688 285.121094 " fill-opacity="1" fill-rule="nonzero"/></g></svg>