<svg width="43" height="33" viewBox="0 0 43 33" fill="none" xmlns="http://www.w3.org/2000/svg">
<path d="M29.9729 11.6262C27.4022 12.2131 24.0491 12.5205 20.5284 12.5205C16.9796 12.5205 13.6545 12.2131 11.0838 11.6262L10.3293 17.4382C10.2177 18.2206 10.7765 18.947 11.5589 19.0589C13.1236 19.2546 15.415 19.4222 17.4268 19.506C17.9296 19.5339 18.4049 19.3384 18.768 18.9751L19.4106 18.3324C19.7458 17.9972 20.193 17.8015 20.6679 17.8015C21.1429 17.8015 21.59 17.9972 21.9253 18.3324L22.54 18.9751C22.9033 19.3384 23.3784 19.5339 23.8812 19.506C25.7812 19.4222 28.0166 19.2825 29.5256 19.087C30.308 18.9753 30.8668 18.2767 30.7551 17.4942L29.9729 11.6262ZM18.1533 16.0971C17.6504 16.4604 16.8121 16.9354 15.8619 16.9354C14.9119 16.9354 14.0736 16.4604 13.5705 16.0971C13.291 15.9014 13.291 15.4824 13.5705 15.2869C14.0734 14.9236 14.9117 14.4486 15.8619 14.4486C16.8119 14.4486 17.6502 14.9236 18.1533 15.2869C18.4049 15.4824 18.4049 15.9014 18.1533 16.0971ZM27.4581 16.0971C26.9552 16.4604 26.1169 16.9354 25.1667 16.9354C24.2167 16.9354 23.3784 16.4604 22.8753 16.0971C22.5958 15.9014 22.5958 15.4824 22.8753 15.2869C23.3782 14.9236 24.2165 14.4486 25.1667 14.4486C26.1167 14.4486 26.955 14.9236 27.4581 15.2869C27.7376 15.4824 27.7376 15.9014 27.4581 16.0971Z" fill="black"/>
<path d="M29.8332 5.89814L30.2523 7.65856L29.0228 7.93806L27.5697 1.73485C27.2902 0.533425 26.0888 -0.22107 24.8871 0.0582043L22.5119 0.617002C21.1986 0.924379 19.8294 0.924379 18.5163 0.617002L16.1411 0.0582043C14.9396 -0.2213 13.738 0.5332 13.4585 1.73485L12.0054 7.93806L10.7759 7.65856L11.195 5.89814C8.736 6.45694 7.22716 7.23932 7.22716 8.13358C7.22716 9.86596 13.1789 11.2631 20.4998 11.2631C27.8207 11.2631 33.7724 9.86596 33.7724 8.13358C33.8009 7.26741 32.2921 6.48503 29.8331 5.89814H29.8332Z" fill="black"/>
<path d="M2.751 24.8194C1.379 24.8194 0.301 25.8484 0.301 27.3114C0.301 28.7744 1.379 29.7964 2.751 29.7964C4.074 29.7964 5.033 28.8234 5.145 27.6124V27.1224H2.52V27.6404H4.466C4.368 28.6064 3.71 29.2224 2.751 29.2224C1.722 29.2224 0.952 28.4804 0.952 27.3114C0.952 26.1354 1.722 25.3934 2.751 25.3934C3.437 25.3934 3.969 25.7224 4.235 26.2894H4.998C4.634 25.3514 3.78 24.8194 2.751 24.8194ZM5.98724 29.7544H6.62424V27.6334C6.62424 26.8074 7.07224 26.4014 7.72324 26.4014C8.36724 26.4014 8.79424 26.8004 8.79424 27.5844V29.7544H9.42424V27.4934C9.42424 26.3944 8.74524 25.8484 7.89124 25.8484C7.35224 25.8484 6.87624 26.0654 6.62424 26.4714V24.5744H5.98724V29.7544ZM14.1048 27.8294C14.1048 26.6184 13.2578 25.8554 12.1658 25.8554C11.0808 25.8554 10.2268 26.6184 10.2268 27.8294C10.2268 29.0474 11.0528 29.8174 12.1378 29.8174C13.2298 29.8174 14.1048 29.0474 14.1048 27.8294ZM10.8778 27.8294C10.8778 26.8634 11.4868 26.4084 12.1588 26.4084C12.8168 26.4084 13.4538 26.8634 13.4538 27.8294C13.4538 28.8024 12.8028 29.2574 12.1378 29.2574C11.4728 29.2574 10.8778 28.8024 10.8778 27.8294ZM17.7003 28.7114C17.6723 27.3394 15.4463 27.8364 15.4463 26.9264C15.4463 26.6184 15.7263 26.3944 16.1953 26.3944C16.7063 26.3944 17.0003 26.6744 17.0283 27.0594H17.6653C17.6233 26.3104 17.0633 25.8554 16.2163 25.8554C15.3623 25.8554 14.8093 26.3384 14.8093 26.9264C14.8093 28.3544 17.0773 27.8574 17.0773 28.7114C17.0773 29.0264 16.7973 29.2784 16.2933 29.2784C15.7543 29.2784 15.4253 28.9984 15.3903 28.6274H14.7323C14.7743 29.3274 15.4043 29.8174 16.3003 29.8174C17.1473 29.8174 17.7003 29.3414 17.7003 28.7114ZM18.7395 28.7044C18.7395 29.4744 19.1245 29.7544 19.8035 29.7544H20.3775V29.2154H19.9085C19.5165 29.2154 19.3765 29.0824 19.3765 28.7044V26.4434H20.3775V25.9184H19.3765V24.9524H18.7395V25.9184H18.2425V26.4434H18.7395V28.7044ZM23.0156 29.7544H23.6526V26.1354L25.2696 29.7544H25.7176L27.3276 26.1424V29.7544H27.9646V24.9104H27.2856L25.4936 28.9144L23.7016 24.9104H23.0156V29.7544ZM32.6849 27.8294C32.6849 26.6184 31.8379 25.8554 30.7459 25.8554C29.6609 25.8554 28.8069 26.6184 28.8069 27.8294C28.8069 29.0474 29.6329 29.8174 30.7179 29.8174C31.8099 29.8174 32.6849 29.0474 32.6849 27.8294ZM29.4579 27.8294C29.4579 26.8634 30.0669 26.4084 30.7389 26.4084C31.3969 26.4084 32.0339 26.8634 32.0339 27.8294C32.0339 28.8024 31.3829 29.2574 30.7179 29.2574C30.0529 29.2574 29.4579 28.8024 29.4579 27.8294ZM33.2844 27.8224C33.2844 29.0124 34.0754 29.8174 35.1044 29.8174C35.8044 29.8174 36.3014 29.4604 36.5324 29.0334V29.7544H37.1764V24.5744H36.5324V26.6044C36.2664 26.1634 35.7134 25.8554 35.1114 25.8554C34.0754 25.8554 33.2844 26.6254 33.2844 27.8224ZM36.5324 27.8294C36.5324 28.7324 35.9304 29.2574 35.2304 29.2574C34.5304 29.2574 33.9354 28.7254 33.9354 27.8224C33.9354 26.9194 34.5304 26.4084 35.2304 26.4084C35.9304 26.4084 36.5324 26.9404 36.5324 27.8294ZM39.8839 26.3944C40.5419 26.3944 41.1019 26.8074 41.0949 27.5564H38.6729C38.7429 26.8074 39.2609 26.3944 39.8839 26.3944ZM41.6759 28.5714H40.9899C40.8499 28.9844 40.4859 29.2784 39.9119 29.2784C39.2609 29.2784 38.7149 28.8514 38.6659 28.0744H41.7319C41.7459 27.9414 41.7529 27.8294 41.7529 27.6894C41.7529 26.6394 41.0249 25.8554 39.9119 25.8554C38.7919 25.8554 38.0149 26.6184 38.0149 27.8294C38.0149 29.0474 38.8199 29.8174 39.9119 29.8174C40.8639 29.8174 41.4799 29.2714 41.6759 28.5714Z" fill="black"/>
</svg>
