<svg width="20" height="21" viewBox="0 0 20 21" fill="none" xmlns="http://www.w3.org/2000/svg">
<path opacity="0.5" d="M10.0002 11.4466C9.0835 11.4466 8.3335 10.6966 8.3335 9.77995C8.3335 8.86328 9.0835 8.11328 10.0002 8.11328C10.9168 8.11328 11.6668 8.86328 11.6668 9.77995C11.6668 10.6966 10.9168 11.4466 10.0002 11.4466ZM10.8335 3.16328V4.84661C10.5578 4.80306 10.2792 4.78077 10.0002 4.77995C7.2085 4.77995 5.00016 6.92161 5.00016 9.94661C5.00016 11.8966 6.62516 14.4799 10.0002 17.5633C13.3752 14.4799 15.0002 11.9049 15.0002 9.94661V9.77995H16.6668V9.94661C16.6668 12.7133 14.4418 15.9883 10.0002 19.7799C5.5585 15.9883 3.3335 12.7133 3.3335 9.94661C3.3335 5.79661 6.50016 3.11328 10.0002 3.11328C10.2835 3.11328 10.5585 3.12995 10.8335 3.16328Z" fill="#AA0505"/>
<path d="M16.6667 3.94678V1.44678H15V3.94678H12.5V5.61344H15V8.11344H16.6667V5.61344H19.1667V3.94678H16.6667Z" fill="#AA0505"/>
</svg>
