<svg width="22" height="22" viewBox="0 0 22 22" fill="none" xmlns="http://www.w3.org/2000/svg">
<path d="M11.0001 12.8334C12.0126 12.8334 12.8335 12.0126 12.8335 11.0001C12.8335 9.98756 12.0126 9.16675 11.0001 9.16675C9.98761 9.16675 9.16679 9.98756 9.16679 11.0001C9.16679 12.0126 9.98761 12.8334 11.0001 12.8334Z" fill="#AFAFAF"/>
<path d="M11.0001 6.41667C12.0126 6.41667 12.8335 5.59586 12.8335 4.58333C12.8335 3.57081 12.0126 2.75 11.0001 2.75C9.98761 2.75 9.16679 3.57081 9.16679 4.58333C9.16679 5.59586 9.98761 6.41667 11.0001 6.41667Z" fill="#AFAFAF"/>
<path d="M11.0001 19.2499C12.0126 19.2499 12.8335 18.4291 12.8335 17.4166C12.8335 16.4041 12.0126 15.5833 11.0001 15.5833C9.98761 15.5833 9.16679 16.4041 9.16679 17.4166C9.16679 18.4291 9.98761 19.2499 11.0001 19.2499Z" fill="#AFAFAF"/>
</svg>
