<svg width="24" height="26" viewBox="0 0 24 26" fill="none" xmlns="http://www.w3.org/2000/svg">
<path d="M8.43964 20.3849V21.3079C8.43964 22.2871 8.82862 23.2262 9.52103 23.9186C10.2134 24.611 11.1525 25 12.1317 25C13.1109 25 14.05 24.611 14.7424 23.9186C15.4348 23.2262 15.8238 22.2871 15.8238 21.3079V20.3849M18.5274 1C20.4056 2.1857 21.9197 3.86732 22.9024 5.85922M1.36108 5.85922C2.34382 3.86731 3.85786 2.18569 5.73605 1M3.84794 11.1546C3.8449 10.0648 4.05693 8.98503 4.47189 7.97727C4.88685 6.9695 5.49658 6.05352 6.26614 5.2818C7.03571 4.51008 7.94999 3.89779 8.95659 3.48002C9.9632 3.06225 11.0423 2.8472 12.1322 2.8472C13.2221 2.8472 14.3012 3.06225 15.3078 3.48002C16.3144 3.89779 17.2287 4.51008 17.9982 5.2818C18.7678 6.05352 19.3775 6.9695 19.7925 7.97727C20.2075 8.98503 20.4195 10.0648 20.4165 11.1546V11.1546C20.4165 15.287 21.281 17.6849 22.0425 18.9955C22.1245 19.1355 22.1682 19.2947 22.169 19.457C22.1699 19.6193 22.1279 19.779 22.0474 19.9199C21.9669 20.0608 21.8506 20.178 21.7104 20.2596C21.5701 20.3413 21.4108 20.3845 21.2485 20.3849H3.01498C2.85267 20.3845 2.69333 20.3412 2.55305 20.2596C2.41278 20.1779 2.29651 20.0607 2.216 19.9198C2.13548 19.7789 2.09355 19.6192 2.09445 19.4569C2.09535 19.2945 2.13903 19.1353 2.2211 18.9953C2.98298 17.6847 3.84793 15.2868 3.84793 11.1546H3.84794Z" stroke="#212121" stroke-width="1.9" stroke-linecap="round" stroke-linejoin="round"/>
</svg>
