<svg width="79" height="79" viewBox="0 0 79 79" fill="none" xmlns="http://www.w3.org/2000/svg">
<path d="M39.5 73.3571C43.9462 73.3571 48.3488 72.4814 52.4566 70.7799C56.5643 69.0784 60.2967 66.5845 63.4406 63.4406C66.5845 60.2967 69.0784 56.5643 70.7799 52.4566C72.4814 48.3488 73.3571 43.9462 73.3571 39.5C73.3571 35.0538 72.4814 30.6512 70.7799 26.5434C69.0784 22.4357 66.5845 18.7033 63.4406 15.5594C60.2967 12.4155 56.5643 9.92156 52.4566 8.22008C48.3488 6.5186 43.9462 5.64286 39.5 5.64286C30.5205 5.64286 21.9088 9.20994 15.5594 15.5594C9.20994 21.9088 5.64286 30.5205 5.64286 39.5C5.64286 48.4795 9.20994 57.0912 15.5594 63.4406C21.9088 69.7901 30.5205 73.3571 39.5 73.3571ZM39.5 79C29.0239 79 18.977 74.8384 11.5693 67.4307C4.16159 60.023 0 49.9761 0 39.5C0 29.0239 4.16159 18.977 11.5693 11.5693C18.977 4.16159 29.0239 0 39.5 0C49.9761 0 60.023 4.16159 67.4307 11.5693C74.8384 18.977 79 29.0239 79 39.5C79 49.9761 74.8384 60.023 67.4307 67.4307C60.023 74.8384 49.9761 79 39.5 79Z" fill="#32B31D"/>
<path d="M60.0735 26.2173C60.6033 25.6875 61.3218 25.3899 62.0711 25.3899C62.8203 25.3899 63.5389 25.6875 64.0687 26.2173C64.5984 26.7471 64.8961 27.4657 64.8961 28.2149C64.8961 28.9641 64.5984 29.6827 64.0687 30.2125L38.6758 55.6053C38.4137 55.8681 38.1024 56.0765 37.7596 56.2188C37.4168 56.361 37.0493 56.4342 36.6782 56.4342C36.3071 56.4342 35.9396 56.361 35.5969 56.2188C35.2541 56.0765 34.9427 55.8681 34.6807 55.6053L20.5735 41.4982C20.3112 41.2358 20.1031 40.9244 19.9611 40.5817C19.8192 40.2389 19.7461 39.8716 19.7461 39.5006C19.7461 39.1296 19.8192 38.7623 19.9611 38.4195C20.1031 38.0768 20.3112 37.7654 20.5735 37.503C20.8358 37.2407 21.1473 37.0326 21.49 36.8906C21.8328 36.7487 22.2001 36.6756 22.5711 36.6756C22.9421 36.6756 23.3094 36.7487 23.6522 36.8906C23.9949 37.0326 24.3063 37.2407 24.5687 37.503L36.6782 49.6182L60.0735 26.2173Z" fill="#32B31D"/>
</svg>
