<svg width="27" height="28" viewBox="0 0 27 28" fill="none" xmlns="http://www.w3.org/2000/svg">
<circle opacity="0.4" cx="13.1433" cy="14" r="13.1433" fill="black"/>
<path fill-rule="evenodd" clip-rule="evenodd" d="M4.31299 14.0001C4.31299 11.6581 5.24336 9.41195 6.89943 7.75588C8.5555 6.0998 10.8016 5.16943 13.1437 5.16943C15.4857 5.16943 17.7318 6.0998 19.3879 7.75588C21.044 9.41195 21.9743 11.6581 21.9743 14.0001C21.9743 16.3421 21.044 18.5883 19.3879 20.2443C17.7318 21.9004 15.4857 22.8308 13.1437 22.8308C10.8016 22.8308 8.5555 21.9004 6.89943 20.2443C5.24336 18.5883 4.31299 16.3421 4.31299 14.0001ZM13.1437 6.4361C11.1376 6.4361 9.21363 7.23302 7.7951 8.65154C6.37657 10.0701 5.57966 11.994 5.57966 14.0001C5.57966 16.0062 6.37657 17.9301 7.7951 19.3487C9.21363 20.7672 11.1376 21.5641 13.1437 21.5641C15.1498 21.5641 17.0737 20.7672 18.4922 19.3487C19.9107 17.9301 20.7077 16.0062 20.7077 14.0001C20.7077 11.994 19.9107 10.0701 18.4922 8.65154C17.0737 7.23302 15.1498 6.4361 13.1437 6.4361ZM16.2823 10.8628C16.4073 10.9878 16.4775 11.1573 16.4775 11.3341C16.4775 11.5109 16.4073 11.6804 16.2823 11.8054L14.0863 14.0001L16.2823 16.1948C16.4075 16.3199 16.4778 16.4897 16.4778 16.6668C16.4778 16.8438 16.4075 17.0136 16.2823 17.1388C16.1571 17.2639 15.9874 17.3343 15.8103 17.3343C15.6333 17.3343 15.4635 17.2639 15.3383 17.1388L13.1437 14.9428L10.949 17.1388C10.887 17.2008 10.8134 17.2499 10.7324 17.2835C10.6514 17.317 10.5646 17.3343 10.477 17.3343C10.3893 17.3343 10.3025 17.317 10.2215 17.2835C10.1406 17.2499 10.067 17.2008 10.005 17.1388C9.94301 17.0768 9.89384 17.0032 9.86029 16.9222C9.82675 16.8412 9.80948 16.7544 9.80948 16.6668C9.80948 16.5791 9.82675 16.4923 9.86029 16.4113C9.89384 16.3303 9.94301 16.2568 10.005 16.1948L12.201 14.0001L10.005 11.8054C9.87981 11.6803 9.80948 11.5105 9.80948 11.3334C9.80948 11.1564 9.87981 10.9866 10.005 10.8614C10.1302 10.7363 10.3 10.6659 10.477 10.6659C10.654 10.6659 10.8238 10.7363 10.949 10.8614L13.1437 13.0574L15.3383 10.8614C15.4003 10.7993 15.4738 10.7501 15.5548 10.7165C15.6358 10.6829 15.7226 10.6656 15.8103 10.6656C15.898 10.6656 15.9848 10.6829 16.0658 10.7165C16.1468 10.7501 16.2204 10.7993 16.2823 10.8614V10.8628Z" fill="white"/>
</svg>
