<svg width="20" height="20" viewBox="0 0 20 20" fill="none" xmlns="http://www.w3.org/2000/svg">
<path opacity="0.5" d="M7.69237 7.69236C9.1262 7.69236 10.2885 6.53001 10.2885 5.09618C10.2885 3.66235 9.1262 2.5 7.69237 2.5C6.25854 2.5 5.09619 3.66235 5.09619 5.09618C5.09619 6.53001 6.25854 7.69236 7.69237 7.69236Z" stroke="#AA0505" stroke-width="1.6" stroke-linecap="round" stroke-linejoin="round"/>
<path opacity="0.5" d="M7.11543 16.3464H2.5V14.6156C2.50919 13.7361 2.74113 12.8733 3.17417 12.1078C3.60721 11.3423 4.22721 10.699 4.97626 10.238C5.72532 9.77706 6.57898 9.51348 7.45753 9.47189C8.33607 9.4303 9.21082 9.61205 10.0001 10.0002" stroke="#AA0505" stroke-width="1.6" stroke-linecap="round" stroke-linejoin="round"/>
<path d="M14.0386 10.5769V17.5" stroke="#AA0505" stroke-width="1.6" stroke-linecap="round" stroke-linejoin="round"/>
<path d="M10.5771 14.0386H17.5003" stroke="#AA0505" stroke-width="1.6" stroke-linecap="round" stroke-linejoin="round"/>
</svg>
