<svg width="26" height="24" viewBox="0 0 26 24" fill="none" xmlns="http://www.w3.org/2000/svg">
<path fill-rule="evenodd" clip-rule="evenodd" d="M10.9334 2.07879C8.67442 2.07879 6.84317 3.91004 6.84317 6.16901C6.84317 8.42798 8.67442 10.2592 10.9334 10.2592C13.1924 10.2592 15.0236 8.42798 15.0236 6.16901C15.0236 3.91004 13.1924 2.07879 10.9334 2.07879ZM5.67453 6.16901C5.67453 3.26463 8.029 0.910156 10.9334 0.910156C13.8378 0.910156 16.1922 3.26463 16.1922 6.16901C16.1922 9.07339 13.8378 11.4279 10.9334 11.4279C8.029 11.4279 5.67453 9.07339 5.67453 6.16901ZM21.4511 7.92196C19.8376 7.92196 18.5295 9.23 18.5295 10.8435C18.5295 12.4571 19.8376 13.7651 21.4511 13.7651C23.0646 13.7651 24.3727 12.4571 24.3727 10.8435C24.3727 9.23 23.0646 7.92196 21.4511 7.92196ZM17.3609 10.8435C17.3609 8.58457 19.1921 6.75332 21.4511 6.75332C23.7101 6.75332 25.5413 8.58457 25.5413 10.8435C25.5413 13.1025 23.7101 14.9338 21.4511 14.9338C19.1921 14.9338 17.3609 13.1025 17.3609 10.8435ZM2.1878 21.9456H19.679C19.3783 17.3774 15.5777 13.7651 10.9334 13.7651C6.2891 13.7651 2.48849 17.3774 2.1878 21.9456ZM1 22.5299C1 17.0438 5.44733 12.5965 10.9334 12.5965C16.4194 12.5965 20.8668 17.0438 20.8668 22.5299C20.8668 22.8525 20.6051 23.1142 20.2825 23.1142H1.58432C1.26161 23.1142 1 22.8525 1 22.5299Z" fill="#212121" stroke="#212121" stroke-width="0.6"/>
<path fill-rule="evenodd" clip-rule="evenodd" d="M24.2016 8.09302C23.9734 7.86483 23.6034 7.86483 23.3752 8.09302L18.7006 12.7675C18.4725 12.9957 18.4725 13.3657 18.7006 13.594C18.9289 13.8221 19.2989 13.8221 19.5271 13.594L24.2016 8.91936C24.4297 8.69118 24.4297 8.32121 24.2016 8.09302Z" fill="#212121" stroke="#212121" stroke-width="0.6"/>
</svg>
