<svg width="24" height="24" viewBox="0 0 24 24" fill="none" xmlns="http://www.w3.org/2000/svg">
<path d="M22.8 5.7L21 4.65V1.5C21 0.6 20.4 0 19.5 0H4.5C3.6 0 3 0.6 3 1.5V4.65L1.2 5.7C0.45 6 0 6.75 0 7.65V21.75C0 22.95 1.05 24 2.25 24C2.7 24 3 23.7 3 23.25C3 22.8 2.7 22.5 2.25 22.5C1.8 22.5 1.5 22.2 1.5 21.75V8.4L9.3 14.85C9.45 15 9.6 15 9.75 15H14.25C14.4 15 14.55 15 14.7 14.85L22.5 8.4V21.75C22.5 22.2 22.2 22.5 21.75 22.5H5.25C4.8 22.5 4.5 22.8 4.5 23.25C4.5 23.7 4.8 24 5.25 24H21.75C22.95 24 24 22.95 24 21.75V7.65C24 6.75 23.55 6 22.8 5.7ZM21.9 6.9L21 7.65V6.45L21.9 6.9ZM3 7.65L2.1 6.9L3 6.45V7.65ZM13.95 13.5H10.05L4.5 8.85V1.5H19.5V8.85L13.95 13.5Z" fill="#212121"/>
</svg>
