<svg width="21" height="26" viewBox="0 0 21 26" fill="none" xmlns="http://www.w3.org/2000/svg">
<path d="M9.95333 0.0110608L10.2917 0C13.02 0 15.2523 2.14559 15.4266 4.8581L15.4375 5.2V7.28H17.4958C19.201 7.28 20.5833 8.67687 20.5833 10.4V22.88C20.5833 24.6031 19.201 26 17.4958 26H3.0875C1.38232 26 0 24.6031 0 22.88V10.4C0 8.67687 1.38232 7.28 3.0875 7.28H5.14583V5.2C5.14583 2.44299 7.26908 0.18712 9.95333 0.0110608ZM17.4958 9.36H3.0875C2.51911 9.36 2.05833 9.82562 2.05833 10.4V22.88C2.05833 23.4544 2.51911 23.92 3.0875 23.92H17.4958C18.0642 23.92 18.525 23.4544 18.525 22.88V10.4C18.525 9.82562 18.0642 9.36 17.4958 9.36ZM10.2917 14.56C11.4285 14.56 12.35 15.4912 12.35 16.64C12.35 17.7888 11.4285 18.72 10.2917 18.72C9.15488 18.72 8.23333 17.7888 8.23333 16.64C8.23333 15.4912 9.15488 14.56 10.2917 14.56ZM10.589 2.09428L10.2917 2.08C8.68679 2.08 7.36791 3.31737 7.2183 4.89952L7.20417 5.2V7.28H13.3792V5.2C13.3792 3.57823 12.1547 2.24547 10.589 2.09428Z" fill="#212121"/>
</svg>
