<svg width="24" height="26" viewBox="0 0 24 26" fill="none" xmlns="http://www.w3.org/2000/svg">
<path d="M8.07855 20.3849V21.3079C8.07855 22.2871 8.46754 23.2262 9.15994 23.9186C9.85235 24.611 10.7914 25 11.7707 25C12.7499 25 13.689 24.611 14.3814 23.9186C15.0738 23.2262 15.4628 22.2871 15.4628 21.3079V20.3849M18.1663 1C20.0445 2.1857 21.5586 3.86732 22.5413 5.85922M1 5.85922C1.98274 3.86731 3.49677 2.18569 5.37496 1M3.48686 11.1546C3.48381 10.0648 3.69584 8.98503 4.1108 7.97727C4.52576 6.9695 5.13549 6.05352 5.90506 5.2818C6.67463 4.51008 7.58891 3.89779 8.59551 3.48002C9.60211 3.06225 10.6813 2.8472 11.7711 2.8472C12.861 2.8472 13.9401 3.06225 14.9467 3.48002C15.9533 3.89779 16.8676 4.51008 17.6372 5.2818C18.4067 6.05352 19.0165 6.9695 19.4314 7.97727C19.8464 8.98503 20.0584 10.0648 20.0554 11.1546V11.1546C20.0554 15.287 20.9199 17.6849 21.6814 18.9955C21.7634 19.1355 21.8071 19.2947 21.8079 19.457C21.8088 19.6193 21.7669 19.779 21.6863 19.9199C21.6058 20.0608 21.4895 20.178 21.3493 20.2596C21.209 20.3413 21.0497 20.3845 20.8874 20.3849H2.65389C2.49158 20.3845 2.33225 20.3412 2.19197 20.2596C2.05169 20.1779 1.93543 20.0607 1.85491 19.9198C1.77439 19.7789 1.73247 19.6192 1.73336 19.4569C1.73426 19.2945 1.77795 19.1353 1.86002 18.9953C2.62189 17.6847 3.48685 15.2868 3.48685 11.1546H3.48686Z" stroke="#212121" stroke-width="1.9" stroke-linecap="round" stroke-linejoin="round"/>
</svg>
