<svg width="18" height="18" viewBox="0 0 18 18" fill="none" xmlns="http://www.w3.org/2000/svg">
<path fill-rule="evenodd" clip-rule="evenodd" d="M1.17157 1.17158C0 2.34316 0 4.22877 0 8.00001V10C0 13.7712 0 15.6569 1.17157 16.8284C2.34315 18 4.22876 18 8 18H10C13.7712 18 15.6569 18 16.8284 16.8284C18 15.6569 18 13.7712 18 10V8.00001C18 5.25875 18 3.51379 17.55 2.31516V13.5C16.6857 13.5 15.8567 13.1566 15.2455 12.5454L14.569 11.8689C14.0528 11.3527 13.7947 11.0947 13.5189 10.952C12.9426 10.6539 12.2575 10.6539 11.6812 10.952C11.4054 11.0947 11.1473 11.3527 10.6312 11.8689L10.6311 11.8689L10.5293 11.9707C10.0975 12.4026 9.88154 12.6185 9.66374 12.6937C9.32663 12.8101 8.95304 12.7382 8.68327 12.5049C8.50898 12.3542 8.38869 12.0735 8.14811 11.5122L8.10005 11.4C7.53229 10.0752 7.24841 9.41286 6.80755 9.08982C6.32414 8.73559 5.70737 8.61681 5.12698 8.76617C4.59768 8.90238 4.0881 9.41196 3.06894 10.4311L1.35005 12.15V1.00684C1.28873 1.059 1.22928 1.11387 1.17157 1.17158Z" fill="#AA0505"/>
<path d="M1 8C1 6.08611 1.00212 4.75129 1.13753 3.74416C1.26907 2.76579 1.50966 2.2477 1.87868 1.87868C2.2477 1.50966 2.76579 1.26907 3.74416 1.13753C4.75129 1.00212 6.08611 1 8 1H10C11.9139 1 13.2487 1.00212 14.2558 1.13753C15.2342 1.26907 15.7523 1.50966 16.1213 1.87868L16.8187 1.18126L16.1213 1.87868C16.4903 2.2477 16.7309 2.76579 16.8625 3.74416C16.9979 4.75129 17 6.08611 17 8V10C17 11.9139 16.9979 13.2487 16.8625 14.2558C16.7309 15.2342 16.4903 15.7523 16.1213 16.1213C15.7523 16.4903 15.2342 16.7309 14.2558 16.8625C13.2487 16.9979 11.9139 17 10 17H8C6.08611 17 4.75129 16.9979 3.74416 16.8625C2.76579 16.7309 2.2477 16.4903 1.87868 16.1213L1.18126 16.8187L1.87868 16.1213C1.50966 15.7523 1.26907 15.2342 1.13753 14.2558C1.00212 13.2487 1 11.9139 1 10V8Z" stroke="#AA0505" stroke-width="2"/>
<circle cx="11.7002" cy="6.3" r="1.8" fill="#AA0505"/>
</svg>
