<svg width="13" height="16" viewBox="0 0 13 16" fill="none" xmlns="http://www.w3.org/2000/svg">
<path d="M0.5 2V15.5C0.499937 15.5868 0.522485 15.6722 0.565425 15.7476C0.608365 15.8231 0.670217 15.8861 0.744892 15.9304C0.819567 15.9747 0.904491 15.9988 0.991305 16.0003C1.07812 16.0018 1.16383 15.9807 1.24 15.939L6.5 13.069L11.76 15.939C11.8362 15.9807 11.9219 16.0018 12.0087 16.0003C12.0955 15.9988 12.1804 15.9747 12.2551 15.9304C12.3298 15.8861 12.3916 15.8231 12.4346 15.7476C12.4775 15.6722 12.5001 15.5868 12.5 15.5V2C12.5 1.46957 12.2893 0.960859 11.9142 0.585786C11.5391 0.210714 11.0304 0 10.5 0L2.5 0C1.96957 0 1.46086 0.210714 1.08579 0.585786C0.710714 0.960859 0.5 1.46957 0.5 2Z" fill="#AA0505"/>
</svg>
