<svg width="11" height="7" viewBox="0 0 11 7" fill="none" xmlns="http://www.w3.org/2000/svg">
<path d="M4.03255 7C3.93091 7.00029 3.83075 6.98003 3.73681 6.94121C3.64288 6.90238 3.55739 6.84571 3.48562 6.77374L0.195712 3.48621C0.0643594 3.33841 -0.00548185 3.14584 0.000336375 2.94819C0.0061546 2.75054 0.0873665 2.56245 0.227185 2.42263C0.367004 2.28281 0.555091 2.2022 0.752739 2.19638C0.950387 2.19056 1.14237 2.2604 1.29017 2.39175L4.03196 5.1282L8.96444 0.195712C9.11224 0.0643594 9.30481 -0.00548185 9.50246 0.000336375C9.70011 0.0061546 9.8882 0.0873665 10.028 0.227185C10.1678 0.367004 10.2485 0.554497 10.2543 0.752145C10.2601 0.949793 10.1902 1.14237 10.0589 1.29017L4.57829 6.77196C4.43294 6.91675 4.23593 6.99754 4.03077 6.99762L4.03255 7Z" fill="#32B31D"/>
</svg>
