<svg width="19" height="19" viewBox="0 0 19 19" fill="none" xmlns="http://www.w3.org/2000/svg">
<path d="M5.85689 9.5605C6.62493 11.1307 7.89773 12.3977 9.47142 13.1586C9.58656 13.2132 9.71393 13.2368 9.84097 13.2272C9.96802 13.2176 10.0904 13.1751 10.196 13.1038L12.5131 11.5587C12.6156 11.4903 12.7335 11.4486 12.8562 11.4374C12.9789 11.4261 13.1024 11.4456 13.2156 11.4941L17.5505 13.352C17.6978 13.4145 17.8208 13.5232 17.9009 13.6617C17.981 13.8002 18.0139 13.961 17.9947 14.1199C17.8576 15.192 17.3345 16.1775 16.5233 16.8917C15.712 17.6059 14.6682 17.9999 13.5873 18C10.249 18 7.04733 16.6738 4.68674 14.3133C2.32616 11.9527 1 8.75104 1 5.41267C1.00006 4.3318 1.39409 3.28801 2.10832 2.47675C2.82254 1.66548 3.80799 1.14236 4.88014 1.00535C5.03897 0.986124 5.19975 1.01904 5.33825 1.09914C5.47675 1.17924 5.58547 1.30218 5.64803 1.44944L7.50748 5.78817C7.55558 5.9004 7.57518 6.02277 7.56453 6.1444C7.55388 6.26604 7.51332 6.38315 7.44646 6.48531L5.9067 8.83801C5.83662 8.94384 5.79519 9.06605 5.78646 9.19268C5.77773 9.31931 5.80199 9.44605 5.85689 9.5605V9.5605Z" stroke="#5F5F5F" stroke-width="1.5" stroke-linecap="round" stroke-linejoin="round"/>
</svg>
