<svg width="24" height="17" viewBox="0 0 24 17" fill="none" xmlns="http://www.w3.org/2000/svg">
<rect x="1" y="1" width="15.0848" height="15.0526" rx="3.5" stroke="#5F5F5F" stroke-width="1.5"/>
<path d="M16.0526 6.89276L15.6252 6.27644L15.3026 6.50016V6.89276H16.0526ZM16.0526 10.0605H15.3026V10.4562L15.6292 10.6795L16.0526 10.0605ZM16.48 7.50908L21.5436 3.99781L20.6888 2.76518L15.6252 6.27644L16.48 7.50908ZM22.25 4.3676V12.5375H23.75V4.3676H22.25ZM21.5459 12.9089L16.476 9.44141L15.6292 10.6795L20.6991 14.147L21.5459 12.9089ZM16.8026 10.0605V6.89276H15.3026V10.0605H16.8026ZM22.25 12.5375C22.25 12.8993 21.8446 13.1132 21.5459 12.9089L20.6991 14.147C21.9934 15.0322 23.75 14.1054 23.75 12.5375H22.25ZM21.5436 3.99781C21.842 3.79087 22.25 4.00445 22.25 4.3676H23.75C23.75 2.79394 21.982 1.86844 20.6888 2.76518L21.5436 3.99781Z" fill="#5F5F5F"/>
</svg>
