<svg width="38" height="38" viewBox="0 0 38 38" fill="none" xmlns="http://www.w3.org/2000/svg">
<circle cx="18.7624" cy="19.3747" r="17.4811" fill="#AA0505" stroke="white" stroke-width="2"/>
<path d="M18.7625 9.84961C24.0232 9.84961 28.2875 14.1139 28.2875 19.3746C28.2875 24.6352 24.0232 28.8996 18.7625 28.8996C13.5019 28.8996 9.23755 24.6352 9.23755 19.3746C9.23755 14.1139 13.5019 9.84961 18.7625 9.84961ZM18.7625 14.6121C18.5899 14.6121 18.4231 14.6746 18.293 14.7881C18.1629 14.9016 18.0783 15.0583 18.0548 15.2293L18.0481 15.3265V18.6602H14.7144C14.5334 18.6603 14.3592 18.729 14.2269 18.8526C14.0947 18.9762 14.0143 19.1453 14.0019 19.3259C13.9896 19.5065 14.0462 19.685 14.1605 19.8254C14.2747 19.9658 14.4379 20.0576 14.6173 20.0823L14.7144 20.089H18.0481V23.4227C18.0482 23.6037 18.117 23.7779 18.2405 23.9102C18.3641 24.0424 18.5333 24.1229 18.7138 24.1352C18.8944 24.1475 19.0729 24.0909 19.2133 23.9766C19.3537 23.8624 19.4456 23.6992 19.4702 23.5199L19.4769 23.4227V20.089H22.8106C22.9916 20.0889 23.1659 20.0201 23.2981 19.8966C23.4304 19.773 23.5108 19.6039 23.5231 19.4233C23.5355 19.2427 23.4788 19.0642 23.3646 18.9238C23.2504 18.7834 23.0871 18.6915 22.9078 18.6669L22.8106 18.6602H19.4769V15.3265C19.4769 15.137 19.4016 14.9553 19.2677 14.8213C19.1337 14.6874 18.952 14.6121 18.7625 14.6121Z" fill="white"/>
</svg>
