<svg width="22" height="22" viewBox="0 0 22 22" fill="none" xmlns="http://www.w3.org/2000/svg">
<path d="M9.625 3.43855C9.625 1.59824 8.02725 0 6.1875 0C4.34775 0 2.75 1.59824 2.75 3.43855C2.75 5.27886 4.34775 6.8771 6.1875 6.8771C8.02725 6.8771 9.625 5.27886 9.625 3.43855ZM12.0312 16.505C12.0312 11.0034 9.17675 8.25252 6.01562 8.25252C2.8545 8.25252 0 11.0034 0 16.505C0 20.2737 12.0312 20.2737 12.0312 16.505ZM16.1562 9.5523C17.996 9.5523 19.5938 7.95406 19.5938 6.11374C19.5938 4.27343 17.996 2.67519 16.1562 2.67519C14.3165 2.67519 12.7188 4.27343 12.7188 6.11374C12.7188 7.95406 14.3165 9.5523 16.1562 9.5523ZM15.9844 10.9277C15.0343 10.9277 14.124 11.2069 13.299 11.7048C13.7981 13.0472 14.0938 14.6386 14.0938 16.505C14.0938 18.3577 12.859 19.8006 10.7401 20.6258C13.3678 22.8512 22 22.3767 22 19.1802C22 13.6786 19.1455 10.9277 15.9844 10.9277Z" fill="#5F5F5F"/>
</svg>
